<svg width="96" height="96" xmlns="http://www.w3.org/2000/svg" xmlns:xlink="http://www.w3.org/1999/xlink" xml:space="preserve" overflow="hidden"><defs><clipPath id="clip0"><rect x="955" y="119" width="96" height="96"/></clipPath></defs><g clip-path="url(#clip0)" transform="translate(-955 -119)"><path d="M1032.05 168 1032.05 150 1039.64 150C1040.75 150 1041.64 149.105 1041.64 148 1041.64 147.077 1041.01 146.273 1040.11 146.056L992.465 134.556 991.9 129.5C991.788 128.478 990.87 127.74 989.848 127.852 988.98 127.947 988.295 128.632 988.2 129.5L987.563 135.163 966.087 146.223C965.106 146.73 964.721 147.936 965.228 148.918 965.57 149.581 966.254 149.998 967 150L985.89 150 980.377 199 967.047 199 967.047 201 1013.05 201 1013.05 199 999.715 199 994.2 150 1030.05 150 1030.05 168 1020.05 168 1020.05 182 1042.05 182 1042.05 168ZM990.4 134.056 990.285 134.028C990.089 133.985 989.884 134.003 989.698 134.079L990.041 131.035C990.046 130.987 990.055 130.987 990.06 131.035ZM990.638 136.171 991.969 148.006 988.127 148.006 989.427 136.443 990.173 136.059ZM967.025 147.99 987.291 137.545 986.114 148.007 967.029 148.007C967.007 148.009 967 148 967.025 147.99ZM983.29 191 983.965 185 996.127 185 996.802 191ZM997.027 193 997.702 199 982.39 199 983.065 193ZM984.19 183 984.865 177 995.227 177 995.902 183ZM985.09 175 985.766 169 994.327 169 995 175ZM994.1 167 985.99 167 986.778 160 993.315 160ZM993.09 158 987 158 987.9 150 992.19 150ZM993.979 148.006 992.7 136.67 1039.56 147.98C1039.6 147.991 1039.6 148 1039.56 148ZM1040.05 180 1022.05 180 1022.05 170 1040.05 170Z"/></g></svg>