<svg width="96" height="96" xmlns="http://www.w3.org/2000/svg" xmlns:xlink="http://www.w3.org/1999/xlink" xml:space="preserve" overflow="hidden"><defs><clipPath id="clip0"><rect x="477" y="567" width="96" height="96"/></clipPath></defs><g clip-path="url(#clip0)" transform="translate(-477 -567)"><path d="M485 627 565 627 565 639 567 639 567 607C567 606.448 566.552 606 566 606 565.448 606 565 606.448 565 607L565 622.756 565 622.756 564.994 622.627C564.792 618.911 561.721 616.002 558 616L508.028 616C508.656 615.163 508.997 614.146 509 613.1L509 612.9C508.997 610.195 506.805 608.003 504.1 608L489.9 608C487.544 608.004 485.524 609.684 485.091 612L485 612 485 592C485 591.448 484.552 591 484 591 483.448 591 483 591.448 483 592L483 639 485 639ZM487 612.9C487 611.298 488.298 610 489.9 610L504.1 610C505.702 610 507 611.298 507 612.9L507 613.1C507 614.702 505.702 616 504.1 616L489.9 616C488.298 616 487 614.702 487 613.1ZM485 618 558 618C560.76 618.003 562.997 620.24 563 623L563 625 485 625Z"/></g></svg>