<svg width="96" height="96" xmlns="http://www.w3.org/2000/svg" xmlns:xlink="http://www.w3.org/1999/xlink" xml:space="preserve" overflow="hidden"><defs><clipPath id="clip0"><rect x="828" y="566" width="96" height="96"/></clipPath></defs><g clip-path="url(#clip0)" transform="translate(-828 -566)"><path d="M900 596 888 596 888 588.3C888.046 584.121 884.694 580.695 880.515 580.65 880.46 580.649 880.405 580.649 880.35 580.65 878.755 580.65 877.202 581.164 875.921 582.115 874.612 581.307 873.132 580.818 871.6 580.686 870.568 576.077 865.996 573.177 861.386 574.208 858.156 574.932 855.632 577.455 854.909 580.686 850.969 581.026 847.957 584.345 848 588.3L848 650C848.007 652.206 849.794 653.993 852 654L884 654C886.206 653.993 887.993 652.206 888 650L888 646 900 646C902.206 645.993 903.993 644.206 904 642L904 600C903.993 597.794 902.206 596.007 900 596ZM886 650C886 651.105 885.105 652 884 652L852 652C850.895 652 850 651.105 850 650L850 592 886 592ZM886 590 850 590 850 588.3C849.978 585.201 852.473 582.67 855.572 582.649 855.63 582.648 855.687 582.649 855.745 582.65L856.625 582.65 856.737 581.777C857.17 578.18 860.437 575.615 864.034 576.048 867.036 576.409 869.402 578.775 869.763 581.777L869.97 582.65 870.85 582.65C872.485 582.664 874.075 583.195 875.39 584.167L876.052 584.651 876.652 584.097C877.659 583.167 878.979 582.651 880.35 582.65 883.437 582.617 885.967 585.092 886 588.179 886 588.22 886 588.26 886 588.3ZM888 603 897 603 897 639 888 639ZM902 642C902 643.105 901.105 644 900 644L888 644 888 641 899 641 899 601 888 601 888 598 900 598C901.105 598 902 598.895 902 600Z"/><path d="M858 640C858.552 640 859 639.552 859 639L859 603C859 602.448 858.552 602 858 602 857.448 602 857 602.448 857 603L857 639C857 639.552 857.448 640 858 640Z"/><path d="M868 640C868.552 640 869 639.552 869 639L869 603C869 602.448 868.552 602 868 602 867.448 602 867 602.448 867 603L867 639C867 639.552 867.448 640 868 640Z"/><path d="M878 640C878.552 640 879 639.552 879 639L879 603C879 602.448 878.552 602 878 602 877.448 602 877 602.448 877 603L877 639C877 639.552 877.448 640 878 640Z"/></g></svg>