<svg width="96" height="96" xmlns="http://www.w3.org/2000/svg" xmlns:xlink="http://www.w3.org/1999/xlink" xml:space="preserve" overflow="hidden"><defs><clipPath id="clip0"><rect x="955" y="551" width="96" height="96"/></clipPath></defs><g clip-path="url(#clip0)" transform="translate(-955 -551)"><path d="M1006.02 608.5C1006.02 603.628 995.723 601 986.023 601 976.323 601 966.023 603.628 966.023 608.5 966.025 608.865 966.086 609.227 966.204 609.573L966.404 610.638C961.724 617.474 961.004 624.738 964.611 629.226 966.77 631.917 970.181 633.344 974.356 633.344 975.075 633.343 975.794 633.303 976.509 633.224 982.006 632.458 987.179 630.166 991.439 626.608 992.526 625.732 993.561 624.795 994.539 623.799L994.801 623.529 994.884 623.574C995.655 624.002 996.563 624.112 997.414 623.881 999.285 623.394 1000.41 621.483 999.92 619.613 999.434 617.742 997.523 616.62 995.652 617.106 994.456 617.417 993.512 618.336 993.17 619.524 992.918 620.35 992.995 621.242 993.386 622.013L993.42 622.085 993.269 622.241C992.298 623.237 991.268 624.174 990.186 625.048 986.223 628.368 981.41 630.511 976.292 631.236 974.944 631.388 973.583 631.367 972.24 631.174L968.769 612.434C972.478 614.77 979.392 616 986.023 616 992.654 616 999.568 614.77 1003.28 612.434L999.045 635.29C997.978 640.258 990.428 641 986.023 641 980.723 641 974.213 640.023 973.05 635.459 972.345 635.411 971.643 635.318 970.95 635.179L971.05 635.72C971.8 639.041 975 643 986.023 643 997.108 643 1000.29 639.036 1001.01 635.682L1005.84 609.573C1005.96 609.227 1006.02 608.865 1006.02 608.5ZM996.115 619.054C996.916 618.831 997.746 619.299 997.969 620.1 998.042 620.364 998.042 620.643 997.969 620.907 997.831 621.413 997.436 621.808 996.93 621.946 996.133 622.172 995.304 621.71 995.077 620.913 995.001 620.645 995.001 620.361 995.077 620.093 995.215 619.587 995.61 619.192 996.115 619.054ZM966.168 627.974C963.422 624.552 963.768 619.055 966.938 613.534L970.111 630.667C968.568 630.161 967.201 629.227 966.168 627.974ZM986.023 614C976.435 614 969.112 611.485 968.141 609.044L968.031 608.453C968.122 605.869 975.782 603 986.023 603 996.264 603 1003.92 605.869 1004.01 608.453L1003.91 609.044C1002.93 611.485 995.61 614 986.023 614Z"/><path d="M1039.45 622.271 1042.76 622.897 1043.23 620.397C1043.72 617.79 1042 615.282 1039.39 614.792L1034.33 613.919 1031.78 610.17 1041.94 556 1039.9 556 1029.93 609.209 1026.31 608.475 1036.18 556 1034.14 556 1024.24 608.666 1020.48 611.222 1015.41 610.258C1012.8 609.775 1010.3 611.483 1009.8 614.081L1009.34 616.575 1013.99 617.447C1013.66 621.46 1012 630.211 1004.14 640.389L1002.9 642 1010.83 642 1011.11 641.458C1011.81 640.102 1012.61 638.801 1013.51 637.566 1013.54 637.526 1013.54 637.532 1013.53 637.577 1012.91 638.977 1012.54 640.485 1013.4 641.606L1013.7 642 1019.48 642C1020.83 642 1021.87 640.4 1023.19 638.375 1023.81 637.329 1024.54 636.352 1025.37 635.46 1025.39 635.449 1025.39 635.453 1025.39 635.47 1025.27 636.001 1025.12 636.525 1024.94 637.04 1024.47 638.477 1023.98 639.963 1024.58 641.032 1024.85 641.516 1025.32 641.858 1025.86 641.972L1030.06 642 1030.21 641.989C1032.65 641.619 1033.25 638.57 1033.77 635.88 1033.93 635.062 1034.11 634.138 1034.35 633.38 1034.35 633.351 1034.36 633.352 1034.37 633.38 1034.5 635.899 1034.5 638.424 1034.35 640.942L1034.3 642 1043.46 642 1042.89 640.621C1040.62 634.77 1039.45 628.548 1039.45 622.271ZM1011.67 614.978 1011.77 614.444C1012.05 612.938 1013.49 611.94 1014.99 612.215 1015.01 612.218 1015.03 612.221 1015.04 612.224L1020.93 613.341 1025.36 610.322 1030.12 611.291 1033.16 615.746 1039.04 616.76C1040.55 617.033 1041.55 618.473 1041.27 619.977 1041.27 619.996 1041.27 620.015 1041.26 620.033L1041.16 620.559 1038.1 619.979 1016.08 615.806 1016.08 615.806 1015.28 615.658 1015.22 615.647 1015.22 615.647ZM1036.4 640C1036.79 631.077 1035.76 630.523 1035.26 630.252 1034.84 630.021 1034.32 630.06 1033.93 630.352 1032.64 631.252 1032.24 633.311 1031.81 635.495 1031.44 637.395 1030.98 639.76 1029.97 639.995L1026.3 639.995C1026.35 639.192 1026.53 638.403 1026.83 637.657 1027.35 636.091 1027.93 634.317 1026.59 633.514 1024.68 632.422 1023.07 634.889 1021.51 637.279 1020.95 638.266 1020.27 639.18 1019.48 640L1014.88 640C1015.1 638.875 1015.53 637.799 1016.13 636.822 1016.85 635.471 1017.32 634.579 1016.74 633.822 1016.38 633.387 1015.79 633.224 1015.26 633.414 1013.07 633.986 1010.56 638.261 1009.62 639.995L1006.92 639.995C1013.95 630.262 1015.6 621.913 1015.96 617.814L1037.46 621.888C1037.42 628.055 1038.45 634.183 1040.5 640Z"/></g></svg>