<svg width="96" height="96" xmlns="http://www.w3.org/2000/svg" xmlns:xlink="http://www.w3.org/1999/xlink" xml:space="preserve" overflow="hidden"><defs><clipPath id="clip0"><rect x="449" y="119" width="96" height="96"/></clipPath></defs><g clip-path="url(#clip0)" transform="translate(-449 -119)"><path d="M488.827 186.731C488.827 187.078 488.837 187.423 488.857 187.77 489.129 192.163 491.33 196.211 494.87 198.827 497.2 200.579 499.969 201.652 502.871 201.929 503.365 201.976 503.868 201.999 504.369 202L512.702 202C518.106 202.016 523.135 199.239 526.001 194.658 527.293 192.583 528.046 190.218 528.193 187.778 528.202 187.65 528.223 186.865 528.223 186.74 528.225 185.336 526.516 184.483 523.935 183.66 523.76 182.344 522.93 181.206 521.73 180.637 521.275 180.437 520.782 180.334 520.285 180.335 519.486 180.349 518.708 180.587 518.039 181.024 517.451 180.332 516.638 179.869 515.744 179.715L515.744 150.58C515.75 146.848 513.784 143.39 510.573 141.488L509.739 126.82 510.484 126.82 510.484 125.022C510.484 124.469 510.374 123.922 510.161 123.412 509.492 121.908 507.983 120.956 506.338 121.001L502.473 121.002C500.813 120.973 499.294 121.934 498.609 123.446 498.404 123.946 498.299 124.481 498.3 125.021L498.3 126.82 498.987 126.82 498.154 141.488C494.942 143.39 492.975 146.848 492.982 150.58L492.982 183.731C490.022 184.658 488.827 185.532 488.827 186.731ZM499.47 185.969C499.503 186.085 499.547 186.195 499.591 186.307 499.642 186.434 499.702 186.557 499.764 186.682 499.839 186.828 499.921 186.97 500.01 187.108 500.087 187.221 500.17 187.331 500.258 187.437 500.266 187.447 500.262 187.454 500.249 187.453 499.057 187.314 497.991 187.155 497.052 186.975 495.839 186.248 495.168 185.065 495.526 184.039 495.97 183.082 496.972 182.512 498.022 182.617 498.594 182.621 499.159 182.733 499.69 182.948L499.694 182.958C499.245 183.898 499.166 184.973 499.47 185.969ZM511.077 186.278C511.149 186.81 511.122 187.35 511 187.873 510.218 187.895 509.431 187.911 508.634 187.911 507.93 187.911 507.248 187.901 506.585 187.885 506.467 187.575 506.383 187.253 506.336 186.924 506.179 185.967 506.385 184.986 506.913 184.172 507.077 183.957 507.268 183.765 507.482 183.599 507.71 183.434 507.975 183.325 508.254 183.282 508.332 183.271 508.41 183.266 508.489 183.266 509.711 183.266 510.842 184.555 511.077 186.278ZM506.553 182.05C506.065 182.368 505.65 182.787 505.336 183.277 504.691 184.212 504.389 185.34 504.479 186.471 503.591 187.009 502.46 186.932 501.652 186.28 501.497 186.126 501.376 185.941 501.3 185.736 501.24 185.578 501.192 185.416 501.157 185.251 501.052 184.112 501.487 182.989 502.333 182.219 503.022 181.486 503.967 181.05 504.972 181 505.499 180.982 506.012 181.178 506.393 181.542 506.472 181.621 506.543 181.708 506.605 181.8ZM493.759 185.583C493.919 186.147 494.191 186.674 494.557 187.132 493.545 186.95 492.543 186.714 491.557 186.424 491.544 186.42 491.543 186.412 491.555 186.406 492.268 186.076 493.004 185.801 493.759 185.583ZM524.306 193.596C521.804 197.593 517.416 200.015 512.7 200L504.37 200C503.929 199.999 503.493 199.979 503.061 199.938 500.524 199.696 498.103 198.757 496.066 197.224 493.102 195.03 491.219 191.671 490.895 187.997 495.296 189.152 499.826 189.739 504.375 189.745L504.576 189.751C505.831 189.787 507.143 189.808 508.526 189.808 512.967 189.808 520.828 189.555 526.157 187.982 525.992 189.973 525.357 191.897 524.306 193.596ZM523.546 186.887C523.696 186.52 523.812 186.138 523.891 185.749 524.435 185.93 524.966 186.144 525.483 186.391 525.496 186.397 525.495 186.405 525.481 186.409 524.867 186.585 524.222 186.745 523.546 186.887ZM521.003 182.284C522.293 182.853 522.638 184.876 521.673 186.663L521.654 186.678C521.152 186.802 520.572 186.923 519.898 187.044 519.096 187.186 518.244 187.311 517.345 187.412 517.164 186.943 517.078 186.443 517.093 185.94 517.097 185.844 517.108 185.75 517.127 185.572 517.15 185.386 517.186 185.202 517.234 185.021 517.287 184.801 517.365 184.587 517.464 184.384 517.901 183.16 518.994 182.289 520.285 182.135 520.532 182.134 520.777 182.185 521.003 182.284ZM515.792 183.657C515.573 184.163 515.422 184.696 515.345 185.242L515.34 185.276C515.298 185.558 515.276 185.842 515.273 186.126L515.068 186.51C514.717 187.162 513.905 187.407 513.252 187.057 513.133 186.993 513.025 186.911 512.93 186.815L512.93 186.815C512.931 186.553 512.916 186.292 512.886 186.031 512.766 185.121 512.438 184.25 511.926 183.488 511.895 183.441 511.863 183.397 511.831 183.351 511.759 183.249 511.696 183.142 511.617 183.044 511.922 182.672 512.285 182.351 512.692 182.094 513.34 181.673 514.093 181.441 514.866 181.425 515.558 181.388 516.229 181.672 516.683 182.195 516.322 182.64 516.023 183.132 515.792 183.657ZM500.445 124.237C500.8 123.458 501.591 122.969 502.447 123.001L506.364 123C507.199 122.972 507.97 123.445 508.324 124.202 508.405 124.399 508.455 124.607 508.475 124.819L507.622 124.819 508.258 136 500.469 136 501.104 124.82 500.309 124.82C500.326 124.62 500.372 124.424 500.445 124.237ZM499.585 142.979 500.087 142.716 500.355 138 508.371 138 508.64 142.716 509.146 142.981C511.972 144.462 513.744 147.389 513.744 150.58L513.744 179.759C513.031 179.909 512.35 180.184 511.733 180.572 511.161 180.932 510.652 181.382 510.224 181.905L510.217 181.913C509.686 181.626 509.093 181.472 508.489 181.466L508.481 181.467 508.274 181.086C508.113 180.788 507.91 180.515 507.672 180.275 506.951 179.57 505.979 179.183 504.972 179.2 503.49 179.247 502.085 179.874 501.06 180.946 500.913 181.093 500.795 181.253 500.667 181.408L500.358 181.285C500.251 181.235 500.141 181.192 500.029 181.155 499.383 180.933 498.704 180.819 498.021 180.817 496.922 180.796 495.849 181.153 494.982 181.829L494.982 150.58C494.976 147.386 496.751 144.454 499.585 142.979Z"/><path d="M517.744 175.8 517.744 177.839C531.116 180.441 539 185.454 539 191.5 539 200.986 519.767 209 497 209 474.233 209 455 200.986 455 191.5 455 185.863 461.965 181.079 473.841 178.356 473.858 178.353 473.859 178.344 473.842 178.338 472.857 177.974 471.903 177.527 470.992 177.002 459.477 180.073 453 185.2 453 191.5 453 202.435 472.327 211 497 211 521.673 211 541 202.435 541 191.5 541 184.259 532.567 178.606 517.744 175.8Z"/><path d="M477.817 177.167 477.817 189.352C477.817 190.084 476.321 190.607 475.223 190.973 474.177 191.13 473.189 191.22 472.404 191.429L472.347 191.444C470.987 191.81 470.203 192.281 470.203 192.856 470.203 194.056 473.945 195 478.652 195 483.359 195 487.176 194.056 487.176 192.856 487.176 192.281 486.392 191.81 485.032 191.444L484.991 191.435C484.206 191.226 483.202 191.13 482.156 190.973 481.058 190.607 479.641 190.136 479.641 189.404L479.641 177.167C483.092 177.167 489.918 173.667 489.604 170.212L488.454 154 469.209 154 467.849 170.212C467.588 173.612 474.417 177.167 477.817 177.167ZM481.474 192.854C481.497 192.862 481.496 192.87 481.472 192.872 480.64 192.951 479.696 193 478.652 193 477.615 193 476.693 192.954 475.888 192.88 475.861 192.878 475.86 192.869 475.886 192.861 475.957 192.836 476.067 192.8 476.165 192.767 477.071 192.499 477.926 192.08 478.694 191.529 479.535 192.131 480.476 192.579 481.474 192.854ZM486.591 156 486.946 161 470.629 161 471.049 156ZM470.461 163 487.088 163 487.612 170.393C487.543 170.921 487.286 171.406 486.887 171.759 484.917 173.668 482.367 174.867 479.641 175.167L477.817 175.167C475.1 174.847 472.564 173.642 470.6 171.737 470.195 171.388 469.927 170.907 469.842 170.379Z"/></g></svg>