<svg width="96" height="96" xmlns="http://www.w3.org/2000/svg" xmlns:xlink="http://www.w3.org/1999/xlink" xml:space="preserve" overflow="hidden"><defs><clipPath id="clip0"><rect x="305" y="566" width="96" height="96"/></clipPath></defs><g clip-path="url(#clip0)" transform="translate(-305 -566)"><path d="M311.567 617.958 318.056 624.446 323 619.764 323 651.976 348 651.986 348 627.017 358 627.017 358 651.99 383 652 383 619.722 387.969 624.422 394.433 617.959 353 578.6ZM381 650 360 649.991 360 625.017 346 625.017 346 649.985 325 649.977 325 617.87 353 591.354 381 617.831ZM318.094 621.656 314.433 618 353 581.356 391.567 618 387.93 621.632 353 588.6Z"/></g></svg>