<svg width="96" height="96" xmlns="http://www.w3.org/2000/svg" xmlns:xlink="http://www.w3.org/1999/xlink" xml:space="preserve" overflow="hidden"><defs><clipPath id="clip0"><rect x="1091" y="552" width="96" height="96"/></clipPath></defs><g clip-path="url(#clip0)" transform="translate(-1091 -552)"><path d="M1120.72 581.411C1120.34 581.761 1120.31 582.355 1120.66 582.738 1120.68 582.759 1120.7 582.779 1120.72 582.798 1121.07 583.181 1121.66 583.209 1122.05 582.862 1122.07 582.842 1122.09 582.82 1122.11 582.798 1124.41 580.436 1124.41 576.671 1122.11 574.309 1121.33 573.535 1120.9 572.477 1120.92 571.379 1120.93 570.359 1121.36 569.388 1122.11 568.694 1122.51 568.325 1122.53 567.704 1122.16 567.307 1121.79 566.911 1121.17 566.889 1120.77 567.259 1120.76 567.274 1120.74 567.29 1120.72 567.307 1118.42 569.669 1118.42 573.434 1120.72 575.796 1122.21 577.372 1122.21 579.835 1120.72 581.411Z"/><path d="M1130.89 575.411C1130.51 575.761 1130.48 576.355 1130.83 576.738 1130.85 576.759 1130.87 576.779 1130.89 576.798 1131.24 577.181 1131.83 577.209 1132.21 576.862 1132.23 576.842 1132.25 576.82 1132.28 576.798 1134.58 574.436 1134.58 570.671 1132.28 568.309 1131.5 567.535 1131.07 566.477 1131.08 565.379 1131.1 564.359 1131.53 563.388 1132.28 562.694 1132.67 562.325 1132.69 561.704 1132.32 561.307 1131.95 560.911 1131.33 560.889 1130.94 561.259 1130.92 561.274 1130.9 561.29 1130.89 561.307 1128.59 563.669 1128.59 567.434 1130.89 569.796 1132.38 571.372 1132.38 573.835 1130.89 575.411Z"/><path d="M1141.72 581.411C1141.34 581.761 1141.31 582.355 1141.66 582.738 1141.68 582.759 1141.7 582.779 1141.72 582.798 1142.07 583.181 1142.66 583.209 1143.05 582.862 1143.07 582.842 1143.09 582.82 1143.11 582.798 1145.41 580.436 1145.41 576.671 1143.11 574.309 1142.33 573.535 1141.9 572.477 1141.92 571.379 1141.93 570.359 1142.36 569.388 1143.11 568.694 1143.51 568.325 1143.53 567.704 1143.16 567.307 1142.79 566.911 1142.17 566.889 1141.77 567.259 1141.76 567.274 1141.74 567.29 1141.72 567.307 1139.42 569.669 1139.42 573.434 1141.72 575.796 1143.21 577.372 1143.21 579.835 1141.72 581.411Z"/><path d="M1169.5 611.5C1169.49 603.772 1163.42 597.411 1155.7 597.035L1155.7 590 1107.7 590 1107.7 636C1107.71 638.206 1109.49 639.993 1111.7 640L1151.7 640C1153.91 639.993 1155.69 638.206 1155.7 636L1155.7 625.965C1163.42 625.589 1169.49 619.228 1169.5 611.5ZM1153.7 636C1153.7 637.105 1152.8 638 1151.7 638L1111.7 638C1110.6 638 1109.7 637.105 1109.7 636L1109.7 592 1153.7 592ZM1155.7 623.965 1155.7 599.035C1162.58 599.415 1167.86 605.304 1167.48 612.188 1167.13 618.542 1162.05 623.614 1155.7 623.965Z"/></g></svg>