<svg width="96" height="96" xmlns="http://www.w3.org/2000/svg" xmlns:xlink="http://www.w3.org/1999/xlink" xml:space="preserve" overflow="hidden"><defs><clipPath id="clip0"><rect x="109" y="119" width="96" height="96"/></clipPath></defs><g clip-path="url(#clip0)" transform="translate(-109 -119)"><path d="M177 134C177 133.448 176.552 133 176 133 175.448 133 175 133.448 175 134L175 139 139 139 139 134C139 133.448 138.552 133 138 133 137.448 133 137 133.448 137 134L137 139 123 139 123 201 191 201 191 139 177 139ZM189 199 125 199 125 156 189 156ZM189 141 189 154 125 154 125 141 137 141 137 145C137 145.552 137.448 146 138 146 138.552 146 139 145.552 139 145L139 141 175 141 175 145C175 145.552 175.448 146 176 146 176.552 146 177 145.552 177 145L177 141Z"/></g></svg>