<svg width="96" height="96" xmlns="http://www.w3.org/2000/svg" xmlns:xlink="http://www.w3.org/1999/xlink" xml:space="preserve" overflow="hidden"><defs><clipPath id="clip0"><rect x="1090" y="429" width="96" height="96"/></clipPath></defs><g clip-path="url(#clip0)" transform="translate(-1090 -429)"><path d="M1174 455.007 1165.13 455.007 1165.13 455 1163.13 455 1163.13 455.007 1150.13 455.007 1150.13 451C1150.13 448.24 1147.89 446.003 1145.13 446L1131.13 446C1128.37 446.003 1126.13 448.24 1126.13 451L1126.13 455.007 1113.13 455.007 1113.13 455 1111.13 455 1111.13 455.007 1102 455.007C1099.79 455.014 1098.01 456.801 1098 459.007L1098 507.022C1098.01 509.228 1099.79 511.015 1102 511.022L1174 511.022C1176.21 511.015 1177.99 509.228 1178 507.022L1178 459.008C1177.99 456.801 1176.21 455.014 1174 455.007ZM1128.13 451C1128.13 449.343 1129.47 448 1131.13 448L1145.13 448C1146.79 448 1148.13 449.343 1148.13 451L1148.13 455 1128.13 455ZM1163.13 457.007 1163.13 509.023 1113.13 509.023 1113.13 457.007ZM1100 507.022 1100 459.008C1100 457.903 1100.9 457.008 1102 457.008L1111.13 457.008 1111.13 509.023 1102 509.023C1100.9 509.023 1100 508.128 1100 507.023 1100 507.023 1100 507.022 1100 507.022ZM1176 507.022C1176 508.127 1175.1 509.022 1174 509.022L1165.13 509.022 1165.13 457.007 1174 457.007C1175.1 457.007 1176 457.902 1176 459.007Z"/></g></svg>