<svg width="96" height="96" xmlns="http://www.w3.org/2000/svg" xmlns:xlink="http://www.w3.org/1999/xlink" xml:space="preserve" overflow="hidden"><defs><clipPath id="clip0"><rect x="141" y="566" width="96" height="96"/></clipPath></defs><g clip-path="url(#clip0)" transform="translate(-141 -566)"><path d="M188.933 580C181.994 579.992 175.506 583.442 171.633 589.2 167.739 594.945 166.917 602.237 169.433 608.705L178.933 629.711 187.133 646.911C187.644 647.905 188.864 648.297 189.859 647.786 190.234 647.592 190.54 647.287 190.733 646.911L198.933 629.711 208.433 608.705C210.948 602.238 210.126 594.949 206.233 589.205 202.361 583.445 195.873 579.993 188.933 580ZM206.587 607.938 197.128 628.853 188.946 646.019 188.919 646.019 180.754 628.89 171.278 607.938C169.02 602.09 169.772 595.506 173.292 590.318 179.116 581.68 190.84 579.399 199.479 585.223 201.493 586.581 203.227 588.316 204.583 590.332 208.096 595.518 208.844 602.096 206.587 607.938Z"/><path d="M188.933 592C183.962 592 179.933 596.029 179.933 601 179.933 605.971 183.962 610 188.933 610 193.904 610 197.933 605.971 197.933 601 197.953 596.049 193.956 592.02 189.005 592 188.981 592 188.957 592 188.933 592ZM188.933 608.005C185.067 608.005 181.933 604.871 181.933 601.005 181.933 597.139 185.067 594.005 188.933 594.005 192.799 594.005 195.933 597.139 195.933 601.005 195.975 604.83 192.908 607.966 189.083 608.008 189.033 608.008 188.983 608.008 188.933 608.008Z"/></g></svg>