<svg width="96" height="96" xmlns="http://www.w3.org/2000/svg" xmlns:xlink="http://www.w3.org/1999/xlink" xml:space="preserve" overflow="hidden"><defs><clipPath id="clip0"><rect x="157" y="119" width="96" height="96"/></clipPath></defs><g clip-path="url(#clip0)" transform="translate(-157 -119)"><path d="M182.3 172.7C185.1 169.8 188.3 167.1 191 167.1 188.7 165.1 185.9 163.8 182.9 163.3 178.1 165.1 174.3 171.9 174.3 171.9 174 174.9 174.6 177.9 175.9 180.5 177.1 180.2 178.4 180.1 179.7 180.1 181.9 180.1 184.1 180.4 186.2 181 182.6 183.8 180 187.5 178.6 191.8 178.8 191.8 185.6 194 185.6 194 185.6 194 188.2 186.9 194.8 184.3 194.8 184.3 197.2 179.1 195.4 176.2 191.8 174.4 186.6 173.3 182.3 172.7ZM176.2 172.6C177.3 170.8 180.2 166.8 183.1 165.4 184.3 165.7 185.4 166.1 186.5 166.6 184.4 167.9 182.5 169.5 180.8 171.4L179.6 172.6C179.1 173 178.6 173.5 178.2 174L178.1 174.2C177.5 175 177 175.8 176.5 176.7 176.5 176.7 176.5 176.7 176.5 176.7 176.5 176.7 176.5 176.7 176.5 176.7 176.2 175.3 176.1 173.9 176.2 172.6L176.2 172.6ZM179.6 178.2C179.1 178.2 178.6 178.2 178 178.3 178 178.3 178 178.3 178 178.3 178 178.3 178 178.3 178 178.3 178.6 176.9 179.4 175.6 180.5 174.5L182 174.7C185.4 175.1 188.7 175.9 191.9 177 191.9 177 191.9 177 191.9 177 191.9 177 191.9 177 191.9 177 190.6 177.8 189.3 178.6 188 179.5L188 179.5 186.6 179.2C184.3 178.5 182 178.2 179.6 178.2L179.6 178.2ZM193.2 182.8C189.4 184.7 186.4 187.8 184.5 191.6 183.1 191.1 182 190.8 181.2 190.5 182.6 187.4 184.7 184.7 187.4 182.6L190.5 180.1C191.6 179.3 192.7 178.7 193.9 178.1 193.9 178.1 193.9 178.1 193.9 178.1 193.9 178.1 193.9 178.1 193.9 178.1 194 179.7 193.8 181.2 193.2 182.7 193.2 182.8 193.2 182.8 193.2 182.8Z"/><path d="M199.7 171.4 197.9 166.5 193 164.7 194.8 169.6Z"/><path d="M206.3 179.9 201.4 181.7 199.6 186.6 204.5 184.8Z"/><path d="M191.1 197.9 193.3 202.6 195.4 197.9 193.3 193.1Z"/><path d="M232.1 193.5 235.5 197.4 236.2 192.3 232.8 188.3Z"/><path d="M191.7 157.3C196 155.6 200.2 153.6 204.3 151.3 207.3 149.5 211.7 147 210.2 143.3 205.5 131.8 192.4 126.4 180.9 131.1 169.4 135.8 164 149 168.7 160.5 169.5 162.3 171.1 162.9 173 162.9 174.9 162.8 176.7 162.5 178.5 161.9 183 160.7 187.4 159.1 191.7 157.3ZM181.7 133C191.8 128.8 203.5 133.3 208.1 143.3 204 143.2 194.2 146.8 188.4 149.2 183.8 151.1 179.3 153.2 174.9 155.7 173.2 156.6 171.7 157.7 170.3 158.9 166.5 148.6 171.6 137.2 181.7 133ZM173 161C172.4 161 171.9 160.9 171.3 160.7 171.3 160.7 171.3 160.7 171.3 160.7 171.3 160.7 171.3 160.7 171.3 160.7 171.9 159.5 178.3 155.6 189.1 151.1 199.9 146.6 207.2 144.9 208.4 145.3 208 146.6 206.2 147.9 203.5 149.5L203.3 149.6C199.3 151.8 195.1 153.8 190.9 155.5 186.7 157.3 182.4 158.8 177.9 160.1 176.4 160.5 174.7 160.9 173 161Z"/><path d="M228.2 149.1 228.2 149.1C216.7 144.3 203.6 149.8 198.8 161.3 197.3 165 201.8 167.5 204.7 169.3 208.8 171.6 213 173.6 217.3 175.3 221.6 177.1 226 178.7 230.5 180 232.3 180.6 234.1 180.9 236 181 237.9 181 239.5 180.4 240.3 178.6 245.2 167.1 239.7 153.9 228.2 149.1ZM231.1 178.1C226.7 176.8 222.3 175.3 218.1 173.5 213.9 171.8 209.7 169.8 205.7 167.6L205.5 167.5C203.2 166.1 201.1 164.7 200.6 163.3 200.6 163.3 200.6 163.3 200.6 163.3 200.6 163.3 200.6 163.3 200.6 163.3 202.3 163.1 209.5 164.9 219.9 169.1 230.4 173.4 237 177.5 237.7 178.7 237.7 178.7 237.7 178.7 237.7 178.7 237.2 178.9 236.6 179 236.1 179 234.4 178.9 232.7 178.6 231.1 178.1ZM238.9 176.9C238.9 177 238.9 177 238.9 176.9 238.8 177 238.8 177 238.9 176.9 236.2 174.3 228 170.2 220.7 167.2 219.1 166.5 206.2 161.3 201.1 161.2 201.1 161.2 201.1 161.2 201.1 161.2 201.1 161.2 201.1 161.2 201.1 161.2 205.9 150.9 218.1 146.5 228.3 151.3 237.9 155.8 242.5 167 238.9 176.9L238.9 176.9Z"/><path d="M225.8 180.6C226.6 182.3 226.9 184.2 226.7 186 226.7 186.1 226.7 186.2 226.6 186.2 226.2 186.2 225.7 186.1 225.3 186.1L224.8 185C223.7 182.7 222.2 180.6 220.5 178.7 219.2 178.2 217.9 177.7 216.6 177.1 215.7 176.7 214.7 176.3 213.8 175.9L213.8 175.9C217.8 178.2 221 181.7 223 185.9 219.5 185.4 216 184.6 212.5 183.6 212.5 183.6 209.9 184.4 209.2 189.8 209.1 190.2 209.1 190.5 209.1 190.9 212.1 192.9 214.9 195.1 217.5 197.5 215.6 198 213.6 198.2 211.6 198.2 208.6 198.2 205.6 197.6 202.9 196.4 204.1 200.1 204.3 203.3 203.9 205.2 205.9 205.7 207.9 205.9 210 205.9 218 205.9 221.4 201.8 221.4 201.8 221.4 201.8 225.5 196.3 224.8 194.6 223.5 193.8 222.3 193.1 221.2 192.3 222.5 192.6 223.8 193.1 225.3 193.7 227.1 193 228.7 186.5 228.7 186.5 228.9 184.8 228.7 183.1 228.2 181.4 227.4 181.1 226.6 180.9 225.8 180.6ZM219.9 200.6C219.5 201 216.5 204 210 204 208.7 204 207.4 203.9 206.2 203.7 206.2 202.3 206.1 201 205.9 199.6 207.8 200.1 209.8 200.3 211.7 200.3 213.8 200.3 216 200 218 199.5L221.2 198.7C220.7 199.3 220.3 200 219.9 200.6L219.9 200.6ZM222.4 195.4C221.6 196 220.7 196.5 219.8 196.9L218.9 196.1C216.5 193.9 213.9 191.9 211.2 190 211.2 189.9 211.2 189.8 211.3 189.7 212.7 190 214.1 190.4 215.4 190.9L220.2 194C220.8 194.4 221.5 194.9 222.4 195.4L222.4 195.4ZM224.8 191.4C223.8 191 222.8 190.7 221.7 190.4L215 188.7C213.9 188.3 212.8 188 211.7 187.8 211.9 187.1 212.3 186.4 212.8 185.9 216 186.8 219.4 187.5 222.7 188L226 188.4C225.7 189.4 225.3 190.4 224.8 191.4Z"/></g></svg>