<svg width="96" height="96" xmlns="http://www.w3.org/2000/svg" xmlns:xlink="http://www.w3.org/1999/xlink" xml:space="preserve" overflow="hidden"><defs><clipPath id="clip0"><rect x="791" y="119" width="96" height="96"/></clipPath></defs><g clip-path="url(#clip0)" transform="translate(-791 -119)"><path d="M849.557 174C849.561 169.396 848.291 164.881 845.887 160.954 844.969 159.483 843.863 158.139 842.597 156.954 842.015 157.31 841.452 157.695 840.91 158.108L841.138 158.323C842.312 159.408 843.335 160.644 844.182 162 850.791 172.828 847.371 186.964 836.543 193.574 825.715 200.183 811.579 196.763 804.969 185.934 798.36 175.106 801.78 160.97 812.609 154.361 819.187 150.346 827.34 149.897 834.319 153.166 834.852 152.685 835.407 152.226 835.983 151.787 823.733 145.458 808.672 150.259 802.343 162.509 800.758 165.577 799.827 168.94 799.608 172.387 799.136 179.294 801.572 186.083 806.328 191.114 815.777 201.182 831.598 201.683 841.666 192.234 846.702 187.507 849.558 180.907 849.557 174Z"/><path d="M865.774 140 860.774 134 844.774 134 839.774 140 852.774 154ZM848.043 141 850.614 148.711C850.616 148.716 850.613 148.722 850.608 148.724 850.604 148.725 850.6 148.724 850.597 148.721L843.444 141.016C843.441 141.012 843.442 141.005 843.446 141.002 843.447 141.001 843.449 141 843.451 141ZM854.087 136 855.287 139 850.241 139 851.441 136ZM862.1 141.011 854.92 148.747C854.916 148.75 854.909 148.75 854.906 148.745 854.904 148.743 854.903 148.74 854.904 148.737L857.484 141 862.1 141C862.102 141.003 862.102 141.008 862.1 141.011ZM855.376 141 852.776 148.809C852.774 148.814 852.769 148.817 852.763 148.815 852.76 148.814 852.758 148.812 852.757 148.809L850.151 141ZM862.315 139 857.44 139 856.24 136 859.84 136 862.326 138.984C862.329 138.989 862.327 138.996 862.321 138.999 862.319 139 862.317 139 862.315 139ZM845.715 136 849.293 136 848.093 139 843.231 139C843.226 139 843.221 138.995 843.221 138.99 843.221 138.987 843.222 138.985 843.224 138.983Z"/><path d="M846.715 151.884 845.215 150.266C835.627 153.443 828.873 162.051 828.07 172.119 827.634 177.705 829.102 183.273 832.233 187.919 833.009 189.063 833.898 190.125 834.887 191.091 835.471 190.737 836.036 190.353 836.581 189.941 835.574 188.996 834.673 187.944 833.893 186.804 831.012 182.528 829.663 177.404 830.065 172.264 830.83 162.667 837.463 154.548 846.715 151.884Z"/><path d="M870.679 156.323C867.82 153.464 864.309 151.343 860.448 150.142L858.921 151.787C871.198 155.047 878.508 167.642 875.249 179.919 871.989 192.196 859.394 199.506 847.117 196.247 845.784 195.893 844.487 195.42 843.239 194.834 842.7 195.318 842.142 195.78 841.565 196.221 845.116 198.045 849.051 198.998 853.043 199 853.662 199 854.284 198.978 854.904 198.931 868.671 197.882 878.981 185.87 877.932 172.103 877.478 166.146 874.905 160.547 870.679 156.323Z"/></g></svg>