<svg width="96" height="96" xmlns="http://www.w3.org/2000/svg" xmlns:xlink="http://www.w3.org/1999/xlink" xml:space="preserve" overflow="hidden"><defs><clipPath id="clip0"><rect x="627" y="119" width="96" height="96"/></clipPath></defs><g clip-path="url(#clip0)" transform="translate(-627 -119)"><path d="M658 176C658 177.105 657.105 178 656 178 654.895 178 654 177.105 654 176 654 174.895 654.895 174 656 174 657.105 174 658 174.895 658 176Z"/><path d="M662 159.5C662 160.328 661.328 161 660.5 161 659.672 161 659 160.328 659 159.5 659 158.672 659.672 158 660.5 158 661.328 158 662 158.672 662 159.5Z"/><path d="M667 168.5C667 169.328 666.328 170 665.5 170 664.672 170 664 169.328 664 168.5 664 167.672 664.672 167 665.5 167 666.328 167 667 167.672 667 168.5Z"/><path d="M689 175.5C689 176.328 688.328 177 687.5 177 686.672 177 686 176.328 686 175.5 686 174.672 686.672 174 687.5 174 688.328 174 689 174.672 689 175.5Z"/><path d="M692 166C692 167.105 691.105 168 690 168 688.895 168 688 167.105 688 166 688 164.895 688.895 164 690 164 691.105 164 692 164.895 692 166Z"/><path d="M675 131C675.552 131 676 130.552 676 130L676 125C676 124.448 675.552 124 675 124 674.448 124 674 124.448 674 125L674 130C674 130.552 674.448 131 675 131Z"/><path d="M670.061 130.975C670.445 131.372 671.078 131.383 671.475 131 671.872 130.616 671.883 129.983 671.5 129.586 671.492 129.577 671.483 129.569 671.475 129.561L667.939 126.025C667.542 125.641 666.909 125.652 666.525 126.05 666.151 126.437 666.151 127.051 666.525 127.439Z"/><path d="M679.232 131.268C679.497 131.268 679.752 131.163 679.939 130.975L683.475 127.439C683.872 127.055 683.883 126.422 683.5 126.025 683.116 125.628 682.483 125.617 682.086 126 682.077 126.008 682.069 126.017 682.061 126.025L678.525 129.561C678.135 129.952 678.135 130.585 678.525 130.975 678.713 131.163 678.967 131.268 679.232 131.268Z"/><path d="M693.719 202.6C693.011 203.305 692.146 203.832 691.194 204.136L688.361 205.155 688.327 205.168C686.004 206.099 685.687 207.262 685.827 208.076 686.099 209.601 688.327 210.011 690.652 210.011 692.414 209.984 694.17 209.815 695.905 209.506 697.505 209.241 705.467 207.773 704.976 204.794 704.841 203.98 704.155 202.989 701.617 202.883L698.58 202.866C697.588 202.893 696.603 202.683 695.708 202.254L695.548 201.454 693.048 186.895C694.016 186.672 694.941 186.289 695.783 185.762 699.372 183.48 701.234 179.261 700.5 175.071L691.464 133.757C691.318 132.949 690.603 132.368 689.782 132.391 689.668 132.391 689.554 132.401 689.442 132.421L675.43 134.911C675.28 134.939 675.134 134.986 674.995 135.049 674.856 134.986 674.71 134.939 674.56 134.911L660.548 132.421C660.436 132.401 660.322 132.391 660.208 132.391 659.387 132.368 658.672 132.949 658.526 133.757L649.491 175.071C648.757 179.258 650.615 183.475 654.2 185.759 655.042 186.286 655.966 186.669 656.934 186.892L654.434 201.458 654.27 202.258C653.368 202.69 652.376 202.898 651.377 202.867L648.33 202.885C645.83 202.99 645.143 203.985 645.008 204.796 644.517 207.774 652.477 209.242 654.066 209.505 655.794 209.823 657.545 209.993 659.302 210.012 659.702 210.012 660.093 210 660.456 209.976 661.298 209.92 663.856 209.75 664.156 208.076 664.301 207.263 663.985 206.1 661.656 205.168L658.764 204.128C657.821 203.824 656.964 203.3 656.264 202.599L658.9 187.258C659.399 187.337 659.904 187.38 660.409 187.384 660.932 187.385 661.454 187.336 661.967 187.237 666.209 186.383 669.495 183.02 670.251 178.759L674.986 144.247C674.991 144.207 675 144.207 675.006 144.247L679.74 178.759C680.495 183.02 683.782 186.383 688.024 187.237 688.537 187.336 689.059 187.386 689.582 187.384 690.087 187.38 690.591 187.337 691.09 187.258L693.58 201.787ZM658.119 206.019 660.936 207.031C661.345 207.18 661.729 207.389 662.075 207.653 662.083 207.659 662.082 207.666 662.075 207.67 661.275 208.014 658.583 208.27 654.409 207.532 650.248 206.846 647.789 205.712 647.129 205.116 647.124 205.114 647.122 205.109 647.123 205.104 647.124 205.102 647.126 205.1 647.129 205.099 647.531 204.955 647.954 204.882 648.381 204.883L651.365 204.866C652.604 204.873 653.832 204.631 654.976 204.153 655.888 204.98 656.957 205.614 658.119 206.018ZM668.275 178.445C667.643 181.875 664.992 184.577 661.575 185.275 661.189 185.349 660.798 185.385 660.405 185.384 659.911 185.381 659.418 185.335 658.932 185.246L657.975 185.076C657.018 184.925 656.1 184.585 655.275 184.076 652.379 182.237 650.87 178.839 651.447 175.457L656.207 153.694C657.436 154.095 658.719 154.307 660.012 154.323 661.647 154.277 663.265 153.971 664.805 153.418 666.944 152.754 668.831 152.195 671.726 153.246ZM672.011 151.213C668.699 150.124 666.425 150.824 664.219 151.507 661.8 152.48 659.114 152.558 656.643 151.727L660.426 134.427 673.983 136.84ZM689.564 134.431 693.346 151.731C690.875 152.562 688.189 152.484 685.771 151.511 683.563 150.828 681.288 150.128 677.979 151.217L676.007 136.84ZM688.411 185.275C684.994 184.577 682.343 181.875 681.711 178.445L678.254 153.245C681.148 152.196 683.033 152.754 685.175 153.418 686.715 153.971 688.333 154.277 689.968 154.323 691.261 154.307 692.544 154.095 693.773 153.694L698.532 175.457C699.11 178.839 697.601 182.237 694.705 184.076 693.88 184.585 692.962 184.924 692.005 185.076L691.048 185.246C690.562 185.335 690.069 185.381 689.575 185.384 689.184 185.385 688.795 185.349 688.411 185.275ZM695.57 207.533C691.433 208.268 688.748 208.016 687.931 207.675 687.926 207.672 687.925 207.666 687.928 207.661 687.929 207.66 687.93 207.659 687.931 207.658 688.268 207.386 688.649 207.174 689.058 207.03L691.849 206.03C693.02 205.625 694.098 204.988 695.016 204.156 696.151 204.632 697.37 204.874 698.601 204.869L701.575 204.885C702.016 204.888 702.455 204.958 702.875 205.092 702.884 205.092 702.886 205.102 702.875 205.109 702.229 205.7 699.766 206.841 695.57 207.533Z"/></g></svg>