<svg width="96" height="96" xmlns="http://www.w3.org/2000/svg" xmlns:xlink="http://www.w3.org/1999/xlink" xml:space="preserve" overflow="hidden"><defs><clipPath id="clip0"><rect x="270" y="119" width="96" height="96"/></clipPath></defs><g clip-path="url(#clip0)" transform="translate(-270 -119)"><path d="M318 205C297.013 205 280 187.987 280 167 280 146.013 297.013 129 318 129 338.987 129 356 146.013 356 167 355.976 187.977 338.977 204.976 318 205ZM318 131C298.118 131 282 147.118 282 167 282 186.882 298.118 203 318 203 337.882 203 354 186.882 354 167 353.978 147.127 337.873 131.022 318 131Z"/><path d="M331.293 181.707 317.293 167.707C317.105 167.52 317 167.265 317 167L317 148 319 148 319 166.586 332.707 180.293Z"/><path d="M320 142C320 143.105 319.105 144 318 144 316.895 144 316 143.105 316 142 316 140.895 316.895 140 318 140 319.105 140 320 140.895 320 142Z"/><path d="M295 167C295 168.105 294.105 169 293 169 291.895 169 291 168.105 291 167 291 165.895 291.895 165 293 165 294.105 165 295 165.895 295 167Z"/><path d="M320 192C320 193.105 319.105 194 318 194 316.895 194 316 193.105 316 192 316 190.895 316.895 190 318 190 319.105 190 320 190.895 320 192Z"/><path d="M345 167C345 168.105 344.105 169 343 169 341.895 169 341 168.105 341 167 341 165.895 341.895 165 343 165 344.105 165 345 165.895 345 167Z"/><path d="M318 200C299.775 200 285 185.225 285 167 285 148.775 299.775 134 318 134 336.225 134 351 148.775 351 167 350.979 185.217 336.217 199.979 318 200ZM318 136C300.879 136 287 149.879 287 167 287 184.121 300.879 198 318 198 335.121 198 349 184.121 349 167 348.98 149.887 335.113 136.02 318 136Z"/></g></svg>