<svg width="96" height="96" xmlns="http://www.w3.org/2000/svg" xmlns:xlink="http://www.w3.org/1999/xlink" xml:space="preserve" overflow="hidden"><defs><clipPath id="clip0"><rect x="401" y="312" width="96" height="96"/></clipPath></defs><g clip-path="url(#clip0)" transform="translate(-401 -312)"><path d="M411 333 411 387 487 387 487 333ZM451.122 367.464C449.948 368.631 448.052 368.631 446.878 367.464L414.431 335.017C414.427 335.013 414.427 335.007 414.431 335.003 414.433 335.001 414.435 335 414.438 335L483.562 335C483.568 335 483.572 335.005 483.572 335.01 483.572 335.013 483.571 335.015 483.569 335.017ZM436.586 360 413.017 383.569C413.013 383.573 413.007 383.573 413.003 383.569 413.001 383.567 413 383.565 413 383.562L413 336.438C413 336.432 413.005 336.428 413.01 336.428 413.013 336.428 413.015 336.429 413.017 336.431ZM438 361.414 445.464 368.878C447.416 370.831 450.582 370.831 452.535 368.879 452.535 368.879 452.536 368.878 452.536 368.878L460 361.414 483.569 384.983C483.573 384.987 483.573 384.993 483.569 384.997 483.567 384.999 483.565 385 483.562 385L414.438 385C414.432 385 414.428 384.995 414.428 384.99 414.428 384.987 414.429 384.985 414.431 384.983ZM461.414 360 484.983 336.431C484.987 336.427 484.993 336.427 484.997 336.431 484.999 336.433 485 336.435 485 336.438L485 383.562C485 383.568 484.995 383.572 484.99 383.572 484.987 383.572 484.985 383.571 484.983 383.569Z"/></g></svg>