<svg width="96" height="96" xmlns="http://www.w3.org/2000/svg" xmlns:xlink="http://www.w3.org/1999/xlink" xml:space="preserve" overflow="hidden"><defs><clipPath id="clip0"><rect x="592" y="312" width="96" height="96"/></clipPath></defs><g clip-path="url(#clip0)" transform="translate(-592 -312)"><path d="M611.322 357.189C611.182 357.189 611.04 357.183 610.897 357.171 609.378 357.046 607.999 356.232 607.157 354.961L601.857 347.167C601.083 346.043 600.813 344.647 601.111 343.315 601.415 341.948 602.268 340.765 603.47 340.045 626.115 326.653 654.255 326.653 676.899 340.045L676.899 340.045C678.1 340.766 678.953 341.948 679.258 343.315 679.556 344.648 679.285 346.044 678.51 347.169L673.21 354.969C671.714 357.243 668.657 357.874 666.383 356.378 666.091 356.186 665.821 355.963 665.576 355.714L660.676 350.814C659.693 349.917 659.148 348.637 659.182 347.306L659.182 342.928C646.834 338.912 633.53 338.912 621.182 342.928L621.182 347.305C621.175 348.625 620.642 349.888 619.7 350.813L614.8 355.713C613.894 356.664 612.635 357.198 611.322 357.189ZM640.19 332C627.632 331.987 615.303 335.359 604.5 341.762 603.769 342.195 603.251 342.913 603.07 343.743 602.892 344.538 603.053 345.372 603.515 346.043L608.815 353.848C609.321 354.614 610.15 355.106 611.065 355.181 611.923 355.267 612.773 354.95 613.365 354.323L618.285 349.401C618.854 348.852 619.181 348.099 619.192 347.308L619.192 341.482 619.876 341.254C633.056 336.806 647.331 336.806 660.511 341.254L661.194 341.482 661.194 347.305C661.168 348.081 661.482 348.829 662.054 349.353L667 354.3C668.127 355.461 669.982 355.489 671.143 354.362 671.301 354.208 671.441 354.038 671.561 353.853L676.861 346.042C677.324 345.371 677.486 344.538 677.308 343.742 677.127 342.911 676.608 342.193 675.875 341.76 665.073 335.359 652.746 331.987 640.19 332Z"/><path d="M671.192 389.021 609.192 389.021 609.192 370.421C609.166 368.024 610.1 365.716 611.785 364.012L623.189 352.6 623.189 348C623.189 345.791 624.98 344 627.189 344L628 344C630.209 344 632 345.791 632 348L632 351.011 648.188 351.011 648.188 348C648.188 345.791 649.979 344 652.188 344L653.188 344C655.397 344 657.188 345.791 657.188 348L657.188 352.6 668.6 363.905C670.277 365.616 671.211 367.92 671.2 370.316ZM611.192 387.021 669.192 387.021 669.192 370.321C669.206 368.457 668.485 366.663 667.185 365.327L655.191 353.428 655.191 348C655.191 346.895 654.296 346 653.191 346L652.191 346C651.086 346 650.191 346.895 650.191 348L650.191 353.011 630 353.011 630 348C630 346.895 629.105 346 628 346L627.189 346C626.084 346 625.189 346.895 625.189 348L625.189 353.425 613.196 365.425C611.877 366.751 611.153 368.555 611.189 370.425Z"/><path d="M648.191 362.013 648.191 362.013 648.191 362.013 648.191 362.013 648.191 362.013M650.191 360.013 646.191 360.013 646.191 364.013 650.191 364.013 650.191 360.013Z"/><path d="M648.191 370.016 648.191 370.016M650.191 368.016 646.191 368.016 646.191 372.016 650.191 372.016 650.191 368.016Z"/><path d="M648.191 378.018 648.191 378.018M650.191 376.018 646.191 376.018 646.191 380.018 650.191 380.018 650.191 376.018Z"/><path d="M640.191 362.013 640.191 362.013 640.191 362.013 640.191 362.013 640.191 362.013M642.191 360.013 638.191 360.013 638.191 364.013 642.191 364.013 642.191 360.013Z"/><path d="M640.191 370.016 640.191 370.016M642.191 368.016 638.191 368.016 638.191 372.016 642.191 372.016 642.191 368.016Z"/><path d="M640.191 378.018 640.191 378.018M642.191 376.018 638.191 376.018 638.191 380.018 642.191 380.018 642.191 376.018Z"/><path d="M632.19 362.013 632.19 362.013 632.19 362.013 632.19 362.013 632.19 362.013M634.19 360.013 630.19 360.013 630.19 364.013 634.19 364.013 634.19 360.013Z"/><path d="M632.19 370.016 632.19 370.016M634.19 368.016 630.19 368.016 630.19 372.016 634.19 372.016 634.19 368.016Z"/><path d="M632.19 378.018 632.19 378.018M634.19 376.018 630.19 376.018 630.19 380.018 634.19 380.018 634.19 376.018Z"/></g></svg>